<svg width="26" height="26" viewBox="0 0 26 26" fill="none" xmlns="http://www.w3.org/2000/svg">
    <path d="M19.3806 15.0128C19.0147 16.2858 18.2894 17.4263 17.2918 18.2976C16.2941 19.1689 15.0663 19.734 13.7556 19.9253C12.7307 20.074 11.6862 20.014 10.685 19.749C9.68378 19.484 8.74643 19.0195 7.92921 18.3832C7.112 17.747 6.43178 16.9521 5.92939 16.0464C5.42699 15.1408 5.11279 14.1429 5.00564 13.1128C4.92263 12.0786 5.0551 11.0384 5.39466 10.0581C5.73422 9.07769 6.2735 8.17844 6.97839 7.41716C7.68328 6.65587 8.53845 6.04912 9.48984 5.63526C10.4412 5.2214 11.4681 5.00943 12.5056 5.01275C13.4778 5.01412 14.4408 5.20079 15.3431 5.56275C15.4852 5.62654 15.646 5.63498 15.794 5.58643C15.9419 5.53787 16.0665 5.43582 16.1431 5.30025L17.9431 1.98775C17.9819 1.91146 18.0052 1.82826 18.0117 1.74294C18.0182 1.65761 18.0078 1.57184 17.9811 1.49055C17.9544 1.40925 17.9119 1.33403 17.856 1.2692C17.8002 1.20437 17.7321 1.1512 17.6556 1.11275C15.7228 0.237646 13.599 -0.131069 11.4843 0.0413403C9.36956 0.213749 7.33353 0.921606 5.56795 2.09824C3.80237 3.27488 2.36535 4.88156 1.39224 6.76698C0.419122 8.65239 -0.0580597 10.7545 0.00563479 12.8753C0.128817 16.0251 1.4236 19.0155 3.63636 21.2606C5.84911 23.5058 8.82038 24.8438 11.9681 25.0128C15.2655 25.159 18.4869 23.9951 20.9294 21.7751C23.3719 19.5551 24.8372 16.4591 25.0056 13.1628C25.0056 12.9128 25.0056 11.4753 25.0056 10.6628C25.0024 10.498 24.9356 10.3409 24.819 10.2244C24.7025 10.1078 24.5454 10.041 24.3806 10.0378H13.1306C12.9649 10.0378 12.8059 10.1036 12.6887 10.2208C12.5715 10.338 12.5056 10.497 12.5056 10.6628V14.4128C12.5056 14.5785 12.5715 14.7375 12.6887 14.8547C12.8059 14.9719 12.9649 15.0378 13.1306 15.0378H19.3806" fill="#231F20"/>
</svg>