<svg width="27" height="30" viewBox="0 0 27 30" fill="none" xmlns="http://www.w3.org/2000/svg">
    <path d="M13.6913 0.0253139C15.3273 0 16.954 0.0150008 18.5787 0C18.6772 1.91354 19.3653 3.86271 20.766 5.21559C22.1639 6.60223 24.1412 7.23695 26.0651 7.45165V12.4854C24.2622 12.4263 22.4508 12.0513 20.8148 11.275C20.1023 10.9525 19.4385 10.5371 18.7887 10.1124C18.7803 13.7651 18.8037 17.4131 18.7653 21.0508C18.6678 22.7984 18.0912 24.5376 17.0749 25.9776C15.4398 28.375 12.6019 29.9378 9.68701 29.9866C7.8991 30.0888 6.11307 29.6013 4.58955 28.7031C2.06473 27.2143 0.288071 24.4888 0.029307 21.5637C-0.000694617 20.9383 -0.0110077 20.3139 0.0143062 19.7036C0.239318 17.325 1.41594 15.0496 3.24229 13.5017C5.3124 11.6987 8.21224 10.84 10.9274 11.3481C10.9527 13.1998 10.8786 15.0496 10.8786 16.9012C9.63826 16.4999 8.18881 16.6124 7.105 17.3653C6.3137 17.8781 5.71274 18.6638 5.39959 19.5526C5.14083 20.1864 5.2149 20.8905 5.2299 21.5637C5.5271 23.615 7.49971 25.3392 9.60544 25.1526C11.0015 25.1376 12.3393 24.3275 13.0669 23.1415C13.3022 22.7262 13.5657 22.3015 13.5797 21.813C13.7025 19.577 13.6538 17.3503 13.6688 15.1142C13.6791 10.0749 13.6538 5.04964 13.6922 0.0262514L13.6913 0.0253139Z" fill="#302F33"/>
</svg>