<svg width="29" height="30" viewBox="0 0 29 30" fill="none" xmlns="http://www.w3.org/2000/svg">
    <path fill-rule="evenodd" clip-rule="evenodd" d="M12.8792 0.0141881C12.6933 0.0227225 12.5412 0.0462498 12.5412 0.0665479C12.5412 0.086846 12.4281 0.103454 12.29 0.103454C12.1483 0.103454 12.0389 0.120292 12.0389 0.141974C12.0389 0.162964 11.9529 0.180263 11.8481 0.180263C11.7431 0.180263 11.6474 0.195948 11.6356 0.214862C11.624 0.233776 11.4923 0.261456 11.3435 0.276449C11.1947 0.291442 11.063 0.319121 11.0514 0.338035C11.0396 0.356949 10.971 0.372634 10.8991 0.372634C10.8273 0.372634 10.7577 0.389933 10.7448 0.410923C10.7316 0.432144 10.6708 0.449444 10.6094 0.449444C10.5482 0.449444 10.4875 0.466743 10.4742 0.487964C10.461 0.508954 10.3991 0.526253 10.3368 0.526253C10.2742 0.526253 10.2232 0.543553 10.2232 0.564774C10.2232 0.585994 10.1796 0.603294 10.1265 0.603294C10.0735 0.603294 10.0299 0.620593 10.0299 0.641584C10.0299 0.662804 9.97773 0.680104 9.91398 0.680104C9.85024 0.680104 9.79808 0.697403 9.79808 0.718624C9.79808 0.739614 9.75473 0.756914 9.70165 0.756914C9.64857 0.756914 9.60499 0.774213 9.60499 0.795434C9.60499 0.816655 9.55724 0.833954 9.49882 0.834185C9.44041 0.834185 9.34282 0.860249 9.28185 0.89185C9.22089 0.92345 9.14718 0.949284 9.11774 0.949284C9.0883 0.949284 9.06419 0.966584 9.06419 0.987574C9.06419 1.00879 9.03035 1.02609 8.98909 1.02609C8.94783 1.02609 8.90332 1.04339 8.89034 1.06461C8.87713 1.0856 8.83262 1.1029 8.79136 1.1029C8.7501 1.1029 8.71649 1.1202 8.71649 1.14142C8.71649 1.16264 8.68172 1.17994 8.63906 1.17994C8.59665 1.17994 8.56187 1.19724 8.56187 1.21823C8.56187 1.23945 8.51853 1.25675 8.46521 1.25675C8.41213 1.25675 8.36878 1.27405 8.36878 1.29527C8.36878 1.31626 8.33401 1.33356 8.29136 1.33356C8.24894 1.33356 8.21417 1.35086 8.21417 1.37208C8.21417 1.3933 8.18635 1.4106 8.15251 1.4106C8.09433 1.4106 7.86971 1.51901 7.82775 1.56745C7.81709 1.57968 7.75196 1.61405 7.68288 1.64403C7.6138 1.67402 7.55747 1.71138 7.55747 1.72753C7.55747 1.74345 7.53151 1.75659 7.49999 1.75659C7.44713 1.75659 7.35673 1.81703 7.22739 1.93905C7.19957 1.96557 7.15622 1.98725 7.13142 1.98725C7.05747 1.98725 6.82103 2.13026 6.65483 2.27558C6.63072 2.29657 6.56304 2.33855 6.50462 2.36854C6.44621 2.39852 6.39846 2.4375 6.39846 2.45503C6.39846 2.47256 6.37157 2.48686 6.33865 2.48686C6.30597 2.48686 6.23225 2.53023 6.175 2.58305C6.11774 2.63587 6.05748 2.67923 6.04102 2.67923C6.02479 2.67923 5.95687 2.73113 5.89011 2.79456C5.82335 2.858 5.75544 2.90989 5.73898 2.90989C5.72252 2.90989 5.63884 2.97909 5.55307 3.06351C5.46707 3.14817 5.37922 3.21736 5.35766 3.21736C5.3361 3.21736 5.22275 3.31263 5.10592 3.42888C4.98886 3.54513 4.88177 3.64016 4.86763 3.64016C4.85372 3.64016 4.79229 3.69206 4.73156 3.75526C4.67083 3.81846 4.62122 3.85998 4.62122 3.8473C4.62122 3.83461 4.56837 3.88236 4.50393 3.9534C4.43949 4.02421 4.27004 4.20367 4.12725 4.35198C3.98469 4.50007 3.84167 4.66245 3.80991 4.71273C3.77793 4.76279 3.72925 4.82322 3.70166 4.84675C3.54682 4.97845 3.38502 5.14638 3.38502 5.17521C3.38502 5.19343 3.33495 5.26401 3.27375 5.33206C3.10639 5.51866 3.07579 5.55695 3.07579 5.58186C3.07579 5.59409 3.03245 5.6476 2.97936 5.70042C2.92605 5.75324 2.8827 5.81229 2.8827 5.83144C2.8827 5.85081 2.83935 5.90963 2.78604 5.96268C2.73296 6.0155 2.68961 6.06925 2.68961 6.08216C2.68961 6.09508 2.64603 6.16243 2.59295 6.23186C2.53987 6.30106 2.49629 6.37625 2.49629 6.39909C2.49629 6.42169 2.48331 6.44591 2.46731 6.45306C2.43324 6.46806 2.26448 6.70264 2.26448 6.73493C2.26448 6.74739 2.22971 6.79444 2.18729 6.83988C2.14487 6.88532 2.1101 6.94506 2.1101 6.97274C2.1101 7.00065 2.09272 7.02326 2.07139 7.02326C2.05007 7.02326 2.03268 7.05578 2.03268 7.09545C2.03268 7.13513 2.00672 7.1891 1.97473 7.2154C1.94297 7.24169 1.91678 7.28713 1.91678 7.31619C1.91678 7.34549 1.89939 7.36925 1.8783 7.36925C1.85697 7.36925 1.83959 7.40384 1.83959 7.44606C1.83959 7.4885 1.8222 7.5231 1.80088 7.5231C1.77978 7.5231 1.7624 7.55769 1.7624 7.59991C1.7624 7.64212 1.74919 7.67695 1.73342 7.67695C1.71743 7.67695 1.66087 7.77198 1.60779 7.88823C1.5547 8.00448 1.49814 8.09952 1.48215 8.09952C1.46639 8.09952 1.45317 8.13089 1.45317 8.16917C1.45317 8.20746 1.42767 8.27228 1.39661 8.31334C1.36532 8.35439 1.33936 8.41829 1.33866 8.45519C1.33797 8.49233 1.31989 8.52255 1.29879 8.52255C1.27747 8.52255 1.26008 8.55715 1.26008 8.59936C1.26008 8.6418 1.2427 8.6764 1.22137 8.6764C1.20028 8.6764 1.18289 8.711 1.18289 8.75321C1.18289 8.79542 1.16551 8.83002 1.14418 8.83002C1.12285 8.83002 1.10547 8.86415 1.10547 8.9059C1.10547 8.94742 1.0707 9.04315 1.02828 9.11834C0.985858 9.19377 0.951088 9.28949 0.951088 9.33101C0.951088 9.37276 0.93463 9.40667 0.914695 9.40667C0.89476 9.40667 0.866711 9.48463 0.85234 9.57966C0.837968 9.67492 0.810847 9.75266 0.792071 9.75266C0.773295 9.75266 0.757764 9.80455 0.757764 9.86799C0.757764 9.93142 0.740379 9.98332 0.719285 9.98332C0.697959 9.98332 0.680574 10.0267 0.680574 10.0795C0.680574 10.1323 0.663188 10.1757 0.641862 10.1757C0.620768 10.1757 0.603383 10.2276 0.603383 10.291C0.603383 10.3544 0.585998 10.4063 0.564672 10.4063C0.543346 10.4063 0.525961 10.4659 0.525961 10.5385C0.525961 10.6114 0.508576 10.6815 0.487482 10.6947C0.466156 10.7076 0.448771 10.7683 0.448771 10.8291C0.448771 10.89 0.43324 10.9496 0.414464 10.9611C0.395456 10.9726 0.370189 11.0386 0.357904 11.1076C0.34585 11.1765 0.313398 11.3657 0.286045 11.5278C0.258692 11.6902 0.223226 11.8357 0.207232 11.8514C0.191469 11.8671 0.178256 11.9723 0.178256 12.0849C0.178256 12.1977 0.160871 12.2899 0.139777 12.2899C0.118451 12.2899 0.101066 12.3817 0.101066 12.4938C0.101066 12.6057 0.0792766 12.7192 0.0528511 12.7455C-0.017617 12.8156 -0.017617 17.0625 0.0528511 17.0858C0.0846081 17.0964 0.101066 17.1852 0.101066 17.3485C0.101066 17.4842 0.116829 17.5951 0.136068 17.5951C0.155076 17.5951 0.180343 17.6774 0.191933 17.7778C0.233889 18.142 0.314325 18.5895 0.342605 18.6174C0.358367 18.6331 0.37158 18.7037 0.37158 18.774C0.37158 18.8446 0.388965 18.9023 0.410059 18.9023C0.431385 18.9023 0.448771 18.9627 0.448771 19.0367C0.448771 19.1108 0.466156 19.1714 0.487482 19.1714C0.508576 19.1714 0.525961 19.2222 0.525961 19.2845C0.525961 19.3465 0.543346 19.4081 0.564672 19.4212C0.585998 19.4344 0.603383 19.4872 0.603383 19.5389C0.603383 19.5905 0.620768 19.6327 0.641862 19.6327C0.663188 19.6327 0.680574 19.6846 0.680574 19.7481C0.680574 19.8115 0.697959 19.8634 0.719285 19.8634C0.740379 19.8634 0.757764 19.8982 0.757764 19.9407C0.757764 19.9834 0.773527 20.0482 0.792534 20.0848C0.811774 20.1215 0.859525 20.2597 0.898932 20.3919C0.938107 20.524 0.983308 20.6322 0.999303 20.6322C1.0153 20.6322 1.02828 20.6633 1.02828 20.7014C1.02828 20.7874 1.11474 20.9775 1.15392 20.978C1.16968 20.978 1.18289 21.0216 1.18289 21.0744C1.18289 21.1272 1.20028 21.1703 1.22137 21.1703C1.2427 21.1703 1.26008 21.2146 1.26008 21.2688C1.26008 21.3246 1.27677 21.3569 1.29879 21.3433C1.31989 21.3304 1.33727 21.3468 1.33727 21.38C1.33727 21.4134 1.3535 21.4706 1.3732 21.5073C1.3929 21.544 1.47473 21.7124 1.55493 21.8817C1.63514 22.0508 1.71186 22.1977 1.72508 22.2083C1.73829 22.2189 1.77376 22.2837 1.80389 22.3525C1.83379 22.4212 1.87158 22.4775 1.88757 22.4775C1.9038 22.4775 1.91678 22.5033 1.91678 22.5351C1.91678 22.567 1.92999 22.5928 1.94575 22.593C1.96175 22.593 2.00695 22.6708 2.04636 22.766C2.08553 22.8611 2.13328 22.9388 2.15252 22.9388C2.17153 22.9388 2.18729 22.9646 2.18729 22.996C2.18729 23.0468 2.23018 23.1118 2.36115 23.2603C2.38247 23.2843 2.42443 23.3517 2.45456 23.4098C2.4847 23.4679 2.52387 23.5155 2.54149 23.5155C2.5591 23.5155 2.57371 23.5413 2.57371 23.5731C2.57371 23.6049 2.59202 23.6308 2.61451 23.6308C2.63699 23.6308 2.64626 23.6458 2.63467 23.664C2.62331 23.6824 2.64835 23.7283 2.69054 23.7662C2.73249 23.804 2.7668 23.8543 2.7668 23.878C2.7668 23.9018 2.80157 23.9463 2.84399 23.9768C2.88664 24.0072 2.92141 24.0554 2.92141 24.0836C2.92141 24.1119 2.9388 24.1244 2.95989 24.1112C2.98122 24.0983 2.9986 24.1126 2.9986 24.1435C2.9986 24.1742 3.04172 24.2402 3.09457 24.29C3.14719 24.3396 3.19123 24.3977 3.19193 24.4189C3.19285 24.4399 3.24965 24.5197 3.31826 24.5963C3.38687 24.6727 3.51251 24.8164 3.59735 24.9156C3.68242 25.015 3.83008 25.1792 3.92582 25.2807C4.02132 25.3822 4.13884 25.5146 4.18659 25.575C4.23434 25.6354 4.27352 25.6705 4.27352 25.653C4.27352 25.6354 4.37644 25.7224 4.50208 25.8465C4.62795 25.9706 4.7668 26.1065 4.81084 26.1489C4.85488 26.1911 4.95085 26.2864 5.02433 26.3602C5.18706 26.5242 5.24037 26.5682 5.3426 26.6227C5.38617 26.6457 5.48237 26.7216 5.55655 26.7913C5.77074 26.9924 5.95316 27.1465 5.96475 27.1361C5.97055 27.131 6.03314 27.1705 6.1036 27.224C6.17407 27.2775 6.24802 27.3213 6.26795 27.3213C6.28789 27.3213 6.32915 27.3559 6.35975 27.3982C6.39034 27.4406 6.4374 27.4752 6.46452 27.4752C6.50949 27.4752 6.6036 27.54 6.72669 27.6563C6.75404 27.6819 6.87365 27.7488 6.9928 27.8048C7.11218 27.8611 7.20977 27.9222 7.20977 27.9409C7.20977 27.9596 7.22785 27.9748 7.24987 27.9748C7.29554 27.9748 7.53151 28.133 7.55098 28.1766C7.55794 28.1925 7.58668 28.2055 7.61473 28.2055C7.64254 28.2055 7.74106 28.2486 7.83355 28.3012C7.92604 28.3538 8.0322 28.3971 8.06929 28.3974C8.10638 28.3976 8.13698 28.4151 8.13698 28.4361C8.13698 28.4573 8.17175 28.4746 8.21417 28.4746C8.25659 28.4746 8.29136 28.4887 8.29136 28.506C8.29136 28.5231 8.35232 28.5609 8.42673 28.59C8.50091 28.619 8.56187 28.6569 8.56187 28.6739C8.56187 28.6912 8.59665 28.7053 8.63906 28.7053C8.68172 28.7053 8.71649 28.7226 8.71649 28.7438C8.71649 28.7648 8.76864 28.7821 8.83239 28.7821C8.89613 28.7821 8.94829 28.7955 8.94829 28.8116C8.94829 28.8458 9.29576 28.9745 9.38802 28.9745C9.42233 28.9745 9.45038 28.9918 9.45038 29.0128C9.45038 29.034 9.4928 29.0513 9.54472 29.0513C9.59664 29.0513 9.64973 29.0686 9.66294 29.0898C9.67615 29.1108 9.72923 29.1281 9.78116 29.1281C9.83308 29.1281 9.8755 29.1454 9.8755 29.1666C9.8755 29.1878 9.91792 29.2051 9.96961 29.2051C10.0215 29.2051 10.0749 29.2224 10.0878 29.2434C10.101 29.2647 10.1541 29.282 10.2061 29.282C10.258 29.282 10.3004 29.2993 10.3004 29.3205C10.3004 29.3415 10.3516 29.3588 10.414 29.3588C10.4766 29.3588 10.5385 29.3761 10.5514 29.3973C10.5647 29.4185 10.6254 29.4358 10.6868 29.4358C10.748 29.4358 10.8078 29.4513 10.8196 29.4702C10.8312 29.4893 10.9627 29.517 11.1115 29.5318C11.2603 29.5468 11.3822 29.5744 11.3822 29.5933C11.3822 29.6125 11.4691 29.6279 11.5753 29.6279C11.6815 29.6279 11.7684 29.6452 11.7684 29.6665C11.7684 29.6875 11.8454 29.7048 11.939 29.7048C12.0412 29.7048 12.1161 29.7241 12.1258 29.753C12.1493 29.8231 16.6488 29.8231 16.7195 29.753C16.7459 29.7264 16.8414 29.7048 16.9316 29.7048C17.0218 29.7048 17.1061 29.6875 17.1193 29.6665C17.1323 29.6452 17.2204 29.6279 17.3148 29.6279C17.4091 29.6279 17.4863 29.6134 17.4863 29.5959C17.4863 29.5781 17.621 29.5431 17.7858 29.5179C18.2709 29.4439 18.3363 29.4291 18.3363 29.3931C18.3363 29.3742 18.3885 29.3588 18.4522 29.3588C18.516 29.3588 18.5681 29.3415 18.5681 29.3205C18.5681 29.2993 18.6288 29.282 18.7033 29.282C18.7777 29.282 18.8384 29.2647 18.8384 29.2434C18.8384 29.2224 18.8808 29.2051 18.9327 29.2051C18.9847 29.2051 19.0377 29.1878 19.051 29.1666C19.0642 29.1454 19.1087 29.1281 19.1499 29.1281C19.191 29.1281 19.2248 29.1108 19.2248 29.0898C19.2248 29.0686 19.2672 29.0513 19.3192 29.0513C19.3711 29.0513 19.4242 29.034 19.4374 29.0128C19.4504 28.9918 19.4967 28.9745 19.5401 28.9745C19.6122 28.9745 19.8006 28.9053 19.968 28.8174C20.0048 28.798 20.0614 28.7821 20.0936 28.7821C20.1256 28.7821 20.152 28.7648 20.152 28.7438C20.152 28.7226 20.1868 28.7053 20.2292 28.7053C20.2719 28.7053 20.3066 28.688 20.3066 28.6668C20.3066 28.6458 20.3414 28.6285 20.3838 28.6285C20.4262 28.6285 20.461 28.6112 20.461 28.59C20.461 28.5688 20.4844 28.5515 20.5129 28.5515C20.5776 28.5515 21.1325 28.276 21.1502 28.2354C21.1571 28.2191 21.1963 28.2055 21.2371 28.2055C21.2777 28.2055 21.311 28.1914 21.311 28.1743C21.311 28.157 21.372 28.1192 21.4462 28.0901C21.5206 28.0611 21.5816 28.0232 21.5816 28.0062C21.5816 27.9889 21.6075 27.9748 21.6395 27.9748C21.6713 27.9748 21.6975 27.9575 21.6975 27.9365C21.6975 27.9153 21.7234 27.898 21.7554 27.898C21.7872 27.898 21.8134 27.8807 21.8134 27.8595C21.8134 27.8385 21.8458 27.8212 21.8859 27.8212C21.9258 27.8212 21.98 27.7951 22.0064 27.7635C22.0329 27.7317 22.0758 27.7059 22.1017 27.7059C22.1277 27.7059 22.1805 27.6713 22.219 27.6288C22.2575 27.5866 22.3085 27.552 22.3324 27.552C22.3562 27.552 22.4007 27.5174 22.4313 27.4752C22.4619 27.4328 22.506 27.3982 22.5292 27.3982C22.5523 27.3982 22.6052 27.367 22.6462 27.329C22.6875 27.2909 22.7777 27.2268 22.8467 27.1862C22.9158 27.1456 22.9724 27.099 22.9724 27.0824C22.9724 27.0658 22.9983 27.0522 23.0303 27.0522C23.0621 27.0522 23.0883 27.0349 23.0883 27.0139C23.0883 26.9927 23.1064 26.9754 23.1286 26.9754C23.1509 26.9754 23.2086 26.9364 23.2568 26.8889C23.3052 26.8413 23.3938 26.7678 23.4536 26.7255C23.5134 26.6831 23.6379 26.5752 23.7299 26.4852C23.8222 26.3952 23.9063 26.3219 23.917 26.3219C23.9378 26.3219 24.4986 25.7999 24.5713 25.7132C24.595 25.6848 24.6729 25.6071 24.7447 25.5402C24.8166 25.4731 24.9121 25.3769 24.9573 25.3264C25.0023 25.2756 25.0783 25.1942 25.1261 25.1453C25.174 25.0966 25.2139 25.0343 25.2148 25.0069C25.2158 24.9795 25.2846 24.9052 25.3678 24.8417C25.4508 24.7783 25.5285 24.7006 25.5403 24.6688C25.5519 24.6369 25.6133 24.5504 25.6766 24.4766C25.8641 24.2575 25.8699 24.2501 25.8699 24.228C25.8699 24.2162 25.9221 24.1525 25.9858 24.0861C26.0496 24.0197 26.1017 23.9484 26.1017 23.9274C26.1017 23.9067 26.1321 23.8614 26.1692 23.8271C26.2452 23.7565 26.3036 23.6698 26.3989 23.4866C26.4343 23.4179 26.4779 23.3616 26.4951 23.3616C26.5125 23.3616 26.5266 23.3358 26.5266 23.3039C26.5266 23.2723 26.541 23.2463 26.5588 23.2463C26.5764 23.2463 26.6154 23.1988 26.6455 23.1406C26.6757 23.0825 26.7109 23.0262 26.7239 23.0156C26.7452 22.9981 26.9798 22.5769 27.0822 22.3721C27.1061 22.3246 27.1386 22.2858 27.1543 22.2856C27.1703 22.2853 27.1833 22.2507 27.1833 22.2083C27.1833 22.1661 27.1974 22.1315 27.2148 22.1315C27.232 22.1315 27.27 22.0708 27.2992 21.997C27.3284 21.923 27.3664 21.8623 27.3838 21.8623C27.401 21.8623 27.4151 21.8289 27.4151 21.7878C27.4151 21.7467 27.4313 21.7034 27.4508 21.6912C27.4705 21.6792 27.4979 21.6176 27.5118 21.5544C27.5259 21.4912 27.5533 21.4395 27.5727 21.4395C27.5924 21.4395 27.6084 21.4153 27.6084 21.3855C27.6084 21.3558 27.6455 21.2564 27.6912 21.1643C27.7679 21.0096 27.8031 20.9279 27.8801 20.7284C27.8963 20.6859 27.9459 20.5702 27.99 20.471C28.0343 20.3716 28.0815 20.2202 28.0954 20.1344C28.1091 20.0489 28.1355 19.9787 28.1541 19.9787C28.1726 19.9787 28.1879 19.9365 28.1879 19.8849C28.1879 19.8332 28.2053 19.7804 28.2264 19.7672C28.2477 19.7541 28.2651 19.7013 28.2651 19.6496C28.2651 19.5979 28.2825 19.5557 28.3038 19.5557C28.3249 19.5557 28.3423 19.5038 28.3423 19.4404C28.3423 19.3769 28.356 19.3251 28.3729 19.3251C28.3896 19.3251 28.4075 19.2702 28.4126 19.2028C28.4177 19.1354 28.4367 19.0619 28.4545 19.0393C28.4726 19.0169 28.4969 18.9465 28.509 18.8831C28.521 18.8197 28.55 18.6898 28.5737 18.5948C28.668 18.213 28.6868 18.1074 28.6884 17.9508C28.6893 17.8608 28.7074 17.7875 28.7287 17.7875C28.7501 17.7875 28.7674 17.6934 28.7674 17.5783C28.7674 17.4632 28.7848 17.3584 28.8059 17.3453C28.8272 17.3321 28.8446 17.2111 28.8446 17.0761C28.8446 16.9412 28.862 16.8201 28.8833 16.8072C28.9044 16.794 28.9218 16.6298 28.9218 16.4418C28.9218 16.254 28.9392 16.0898 28.9605 16.0767C29.0132 16.0444 29.0132 13.8024 28.9605 13.7701C28.9392 13.7569 28.9218 13.5846 28.9218 13.3856C28.9218 13.1867 28.9047 13.0142 28.8833 13.0013C28.862 12.9881 28.8446 12.8758 28.8446 12.7512C28.8446 12.6269 28.8272 12.5146 28.8059 12.5014C28.7848 12.4883 28.7674 12.3836 28.7674 12.2685C28.7674 12.1534 28.7533 12.0593 28.7361 12.0593C28.719 12.0593 28.684 11.9079 28.6585 11.723C28.5827 11.1744 28.5679 11.0988 28.5315 11.0764C28.5125 11.0649 28.4969 11.0044 28.4969 10.9422C28.4969 10.8801 28.4795 10.8291 28.4582 10.8291C28.4371 10.8291 28.4197 10.7685 28.4197 10.6947C28.4197 10.6206 28.4024 10.56 28.381 10.56C28.3597 10.56 28.3423 10.5081 28.3423 10.4446C28.3423 10.3812 28.3249 10.3293 28.3038 10.3293C28.2825 10.3293 28.2651 10.2774 28.2651 10.214C28.2651 10.1505 28.2477 10.0986 28.2264 10.0986C28.2053 10.0986 28.1879 10.0467 28.1879 9.98332C28.1879 9.91988 28.1724 9.86799 28.1536 9.86799C28.1349 9.86799 28.1077 9.79072 28.0934 9.69591C28.0792 9.60134 28.0546 9.516 28.0387 9.50608C28.0229 9.49639 27.986 9.4009 27.9568 9.29387C27.9274 9.18685 27.8891 9.0992 27.8718 9.0992C27.8544 9.0992 27.8402 9.05606 27.8402 9.00301C27.8402 8.95019 27.8228 8.90706 27.8015 8.90706C27.7802 8.90706 27.7628 8.87246 27.7628 8.83002C27.7628 8.78781 27.7454 8.75321 27.7243 8.75321C27.703 8.75321 27.6856 8.71861 27.6856 8.6764C27.6856 8.63396 27.6682 8.59936 27.6469 8.59936C27.6258 8.59936 27.6084 8.56476 27.6084 8.52255C27.6084 8.48034 27.591 8.44574 27.5697 8.44574C27.5484 8.44574 27.531 8.40376 27.531 8.35232C27.531 8.30088 27.5037 8.23168 27.4703 8.19847C27.4369 8.16525 27.4202 8.13804 27.433 8.13804C27.4457 8.13804 27.4093 8.05592 27.3521 7.95558C27.2946 7.85502 27.229 7.73415 27.2058 7.68663C27.1828 7.63935 27.1511 7.60037 27.1351 7.60014C27.1191 7.60014 27.1061 7.56531 27.1061 7.5231C27.1061 7.48065 27.0922 7.44606 27.0755 7.44606C27.0586 7.44606 27.0125 7.36832 26.9731 7.27306C26.9337 7.17803 26.8866 7.10007 26.8685 7.10007C26.8504 7.10007 26.8356 7.06547 26.8356 7.02326C26.8356 6.98105 26.8182 6.94645 26.7971 6.94645C26.7758 6.94645 26.7584 6.92315 26.7584 6.89455C26.7584 6.86618 26.7236 6.81174 26.6812 6.77345C26.6386 6.73516 26.6038 6.6805 26.6038 6.65212C26.6038 6.62375 26.5894 6.60046 26.5718 6.60046C26.5542 6.60046 26.515 6.55271 26.4849 6.49458C26.4547 6.43646 26.404 6.35988 26.372 6.32436C26.3402 6.2886 26.2795 6.19357 26.2371 6.11284C26.1947 6.03211 26.1121 5.92024 26.0535 5.86419C25.9951 5.80814 25.9471 5.75209 25.9471 5.73963C25.9471 5.70526 25.5964 5.25202 25.4645 5.11547C25.4005 5.0495 25.2788 4.91272 25.1937 4.81146C25.1087 4.71043 24.9636 4.55427 24.8708 4.46477C24.7783 4.37528 24.6877 4.28717 24.6696 4.26894C24.4362 4.03575 24.1147 3.71905 24.0454 3.65423C23.9969 3.60879 23.9082 3.51815 23.8479 3.45241C23.7876 3.38644 23.7218 3.33269 23.7014 3.33269C23.681 3.33269 23.6223 3.29371 23.5711 3.2462C23.4309 3.11564 23.3643 3.06351 23.3379 3.06351C23.3247 3.06351 23.2496 2.9987 23.1713 2.91935C23.0927 2.84024 23.0039 2.76988 22.9738 2.7632C22.9439 2.75674 22.8901 2.71776 22.8544 2.6767C22.8187 2.63587 22.7723 2.60219 22.7517 2.60219C22.7308 2.60219 22.6634 2.55906 22.6017 2.50624C22.5398 2.45342 22.4714 2.41005 22.4497 2.41005C22.4276 2.41005 22.3847 2.37546 22.3542 2.33324C22.3236 2.2908 22.2788 2.2562 22.2549 2.2562C22.2311 2.2562 22.1801 2.22161 22.1416 2.17939C22.1031 2.13718 22.0484 2.10258 22.0199 2.10258C21.9911 2.10258 21.9677 2.08528 21.9677 2.06406C21.9677 2.04284 21.9344 2.02554 21.8933 2.02554C21.8523 2.02554 21.7957 2.00409 21.7677 1.97757C21.7396 1.95104 21.6645 1.90376 21.6008 1.87216C21.537 1.84055 21.4568 1.78427 21.4223 1.74714C21.388 1.71 21.3407 1.67955 21.3173 1.67955C21.2939 1.67955 21.209 1.64242 21.1286 1.59675C20.8523 1.43967 20.7892 1.41107 20.7218 1.41083C20.6847 1.4106 20.6543 1.39653 20.6543 1.37923C20.6543 1.36217 20.5934 1.32434 20.519 1.29527C20.4448 1.26621 20.3838 1.22838 20.3838 1.21108C20.3838 1.19401 20.3574 1.17994 20.3254 1.17994C20.2932 1.17994 20.2366 1.16449 20.1998 1.14581C20.1629 1.12712 20.0892 1.09506 20.0361 1.07453C19.983 1.05377 19.8639 0.999799 19.7714 0.954589C19.6789 0.909149 19.5354 0.861172 19.4527 0.848024C19.3699 0.834877 19.302 0.809043 19.302 0.79059C19.302 0.772137 19.2614 0.756914 19.2118 0.756914C19.1625 0.756914 19.1098 0.74515 19.0952 0.730618C19.0568 0.692329 18.792 0.604447 18.713 0.603755C18.6757 0.603525 18.6453 0.585994 18.6453 0.564774C18.6453 0.543553 18.5941 0.526253 18.5317 0.526253C18.4691 0.526253 18.4072 0.508954 18.3943 0.487964C18.381 0.466743 18.3289 0.449444 18.2784 0.449444C18.2276 0.449444 18.1754 0.432144 18.1625 0.410923C18.1492 0.389933 18.0797 0.372634 18.0078 0.372634C17.936 0.372634 17.8674 0.356718 17.8553 0.337343C17.8433 0.317967 17.703 0.290058 17.5433 0.275065C17.3838 0.260302 17.2438 0.232854 17.2322 0.21417C17.2209 0.195487 17.1254 0.180263 17.0204 0.180263C16.9154 0.180263 16.8296 0.162964 16.8296 0.141974C16.8296 0.120292 16.7211 0.103454 16.5816 0.103454C16.4286 0.103454 16.328 0.0863847 16.3189 0.0589361C16.3039 0.0141881 13.6418 -0.0206416 12.8792 0.0141881ZM15.516 5.10117C15.516 5.12239 15.6182 5.13946 15.7454 5.13946C15.8718 5.13946 15.9858 5.15675 15.9988 5.17798C16.012 5.1992 16.0913 5.2165 16.175 5.2165C16.2587 5.2165 16.3273 5.2301 16.3273 5.24694C16.3273 5.26378 16.3924 5.282 16.4722 5.28731C16.5517 5.29261 16.6335 5.31337 16.6537 5.33367C16.6738 5.35374 16.738 5.37012 16.7962 5.37012C16.8546 5.37012 16.9126 5.38695 16.9253 5.40748C16.9381 5.42801 17.0347 5.45615 17.1402 5.47022C17.2454 5.48406 17.3317 5.51059 17.3317 5.52881C17.3317 5.54726 17.3664 5.56249 17.4091 5.56249C17.4515 5.56249 17.4863 5.57979 17.4863 5.60078C17.4863 5.622 17.5192 5.6393 17.5593 5.6393C17.5996 5.6393 17.8164 5.73433 18.0415 5.85081C18.2663 5.96706 18.4728 6.0621 18.5007 6.0621C18.5282 6.0621 18.576 6.09669 18.6066 6.13914C18.6372 6.18135 18.6919 6.21595 18.7278 6.21595C18.764 6.21595 18.7992 6.22955 18.8062 6.24639C18.8134 6.263 18.9056 6.33658 19.0113 6.4097C19.2313 6.56171 19.2835 6.60046 19.3586 6.66758C19.3882 6.6941 19.4218 6.71579 19.4332 6.71579C19.5127 6.71579 20.6013 7.81304 20.6937 7.98672C20.7211 8.03839 20.7758 8.10851 20.8147 8.14265C20.8539 8.17679 20.8861 8.22061 20.8861 8.23976C20.8861 8.25913 20.9209 8.29996 20.9633 8.33041C21.0058 8.36085 21.0405 8.40791 21.0405 8.4349C21.0405 8.46188 21.0579 8.48403 21.0792 8.48403C21.1006 8.48403 21.1179 8.50871 21.1179 8.53892C21.1179 8.56914 21.1407 8.61689 21.1685 8.6448C21.1963 8.67271 21.244 8.75182 21.2746 8.82056C21.305 8.8893 21.343 8.94535 21.359 8.94535C21.3752 8.94535 21.3882 8.97995 21.3882 9.02239C21.3882 9.0646 21.4056 9.0992 21.4269 9.0992C21.4483 9.0992 21.4657 9.12618 21.4657 9.15917C21.4657 9.19215 21.483 9.2083 21.5041 9.19538C21.5255 9.18223 21.5428 9.20622 21.5428 9.24843C21.5428 9.29064 21.5602 9.33608 21.5816 9.349C21.6026 9.36215 21.62 9.40736 21.62 9.4498C21.62 9.49201 21.6374 9.516 21.6587 9.50285C21.6803 9.4897 21.6975 9.51854 21.6975 9.5679C21.6977 9.61657 21.741 9.74182 21.7941 9.84584C21.8472 9.94987 21.8905 10.0666 21.8905 10.1053C21.8905 10.1439 21.9079 10.1757 21.9293 10.1757C21.9503 10.1757 21.9677 10.2276 21.9677 10.291C21.9677 10.3544 21.9851 10.4063 22.0064 10.4063C22.0278 10.4063 22.0452 10.4495 22.0452 10.5023C22.0452 10.5554 22.0625 10.5985 22.0836 10.5985C22.105 10.5985 22.1223 10.6495 22.1223 10.7115C22.1223 10.7738 22.1397 10.8354 22.1611 10.8483C22.1822 10.8614 22.1995 10.9412 22.1995 11.0259C22.1995 11.1106 22.2148 11.1703 22.2334 11.159C22.4082 11.0515 22.4033 15.14 22.2285 15.3113C22.2128 15.327 22.1995 15.4052 22.1995 15.485C22.1995 15.5648 22.1822 15.6407 22.1611 15.6539C22.1397 15.6668 22.1223 15.736 22.1223 15.8075C22.1223 15.879 22.105 15.9482 22.0836 15.9613C22.0625 15.9745 22.0452 16.0273 22.0452 16.079C22.0452 16.1306 22.0315 16.1728 22.0146 16.1728C21.9979 16.1728 21.98 16.2282 21.9747 16.2963C21.9696 16.3641 21.9524 16.4289 21.9367 16.4404C21.9207 16.4517 21.856 16.6169 21.793 16.8072C21.7297 16.9975 21.665 17.1589 21.649 17.1658C21.6332 17.173 21.62 17.2085 21.62 17.2447C21.62 17.328 21.5331 17.5176 21.4946 17.5181C21.4786 17.5181 21.4657 17.5515 21.4657 17.5921C21.4657 17.6724 21.356 17.6887 20.519 17.7333C20.3066 17.7446 20.1161 17.7702 20.0959 17.7898C20.0758 17.8096 19.9673 17.8258 19.8546 17.8258C19.742 17.8258 19.6497 17.8431 19.6497 17.8643C19.6497 17.8855 19.5716 17.9028 19.4759 17.9028C19.3804 17.9028 19.302 17.9201 19.302 17.9411C19.302 17.9623 19.2315 17.9796 19.1453 17.9796C19.0591 17.9796 18.9979 17.9948 19.0092 18.0133C19.0208 18.0317 18.942 18.0585 18.8345 18.0726C18.7267 18.0869 18.6052 18.115 18.5646 18.1351C18.5241 18.1554 18.4562 18.189 18.414 18.2103C18.3718 18.2315 18.311 18.2488 18.2788 18.2488C18.2466 18.2488 18.2204 18.2661 18.2204 18.2871C18.2204 18.3083 18.1856 18.3256 18.143 18.3256C18.1006 18.3256 18.0658 18.3429 18.0658 18.3641C18.0658 18.3851 18.031 18.4024 17.9886 18.4024C17.946 18.4024 17.9112 18.4197 17.9112 18.4409C17.9112 18.4622 17.8764 18.4795 17.834 18.4795C17.7916 18.4795 17.7568 18.4967 17.7568 18.5177C17.7568 18.539 17.7306 18.5563 17.6989 18.5563C17.6669 18.5563 17.6409 18.5703 17.6409 18.5874C17.6409 18.6045 17.5714 18.649 17.4863 18.6861C17.4012 18.7235 17.3317 18.7701 17.3317 18.7897C17.3317 18.8093 17.3124 18.8254 17.289 18.8254C17.2654 18.8254 17.1537 18.9161 17.0405 19.0273C16.3718 19.6837 16.3273 19.731 16.3273 19.785C16.3273 19.8069 16.3099 19.8249 16.2886 19.8249C16.2675 19.8249 16.2501 19.8519 16.2501 19.8849C16.2501 19.9178 16.2327 19.934 16.2114 19.9211C16.19 19.9079 16.1727 19.9328 16.1727 19.9764C16.1727 20.02 16.1588 20.0555 16.1416 20.0555C16.101 20.0555 15.9024 20.4223 15.9024 20.4973C15.9024 20.5293 15.885 20.5554 15.8637 20.5554C15.8423 20.5554 15.825 20.59 15.825 20.6322C15.825 20.6744 15.8076 20.709 15.7865 20.709C15.7652 20.709 15.7478 20.7436 15.7478 20.7861C15.7478 20.8283 15.7304 20.8629 15.7091 20.8629C15.688 20.8629 15.6706 20.9062 15.6706 20.959C15.6706 21.0119 15.6532 21.055 15.6319 21.055C15.6105 21.055 15.5932 21.0887 15.5932 21.1297C15.5932 21.1708 15.5758 21.2151 15.5547 21.228C15.5333 21.2411 15.516 21.3016 15.516 21.3627C15.516 21.4236 15.4986 21.484 15.4773 21.4972C15.4562 21.5103 15.4388 21.5622 15.4388 21.6125C15.4388 21.6628 15.423 21.7138 15.404 21.7255C15.385 21.7371 15.3572 21.8678 15.3421 22.0159C15.3273 22.164 15.2992 22.2853 15.2802 22.2853C15.2612 22.2853 15.2454 22.3718 15.2454 22.4775C15.2454 22.5831 15.2281 22.6696 15.207 22.6696C15.1856 22.6696 15.1683 22.7637 15.1683 22.8788C15.1683 22.9939 15.1509 23.0986 15.1295 23.1118C15.1085 23.1249 15.0911 23.273 15.0911 23.4409C15.0911 23.6188 15.0748 23.7461 15.0524 23.7461C15.0296 23.7461 15.0136 23.8799 15.0136 24.0707C15.0136 24.2492 14.9963 24.4058 14.9752 24.4189C14.9538 24.4319 14.9365 24.5541 14.9365 24.6902V24.9379H14.4729H14.0092V24.7479C14.0092 24.6434 13.9919 24.5472 13.9705 24.5343C13.9494 24.5211 13.9321 24.3654 13.9321 24.1883C13.9321 24.0109 13.9147 23.8552 13.8933 23.8423C13.872 23.8291 13.8546 23.6811 13.8546 23.5131C13.8546 23.3353 13.8386 23.208 13.8162 23.208C13.7946 23.208 13.7774 23.1053 13.7774 22.9773C13.7774 22.8491 13.7603 22.7467 13.7387 22.7467C13.7176 22.7467 13.7003 22.6602 13.7003 22.5543C13.7003 22.4486 13.6852 22.3622 13.6671 22.3622C13.6488 22.3622 13.6224 22.2371 13.608 22.0842C13.5939 21.9315 13.5651 21.7897 13.5445 21.7691C13.5238 21.7486 13.5069 21.693 13.5069 21.6455C13.5069 21.5982 13.4895 21.5486 13.4684 21.5357C13.4471 21.5225 13.4297 21.4706 13.4297 21.4204C13.4297 21.3699 13.4124 21.318 13.391 21.305C13.3699 21.2919 13.3525 21.24 13.3525 21.1897C13.3525 21.1392 13.3352 21.0873 13.3138 21.0744C13.2925 21.0612 13.2751 21.0084 13.2751 20.9567C13.2751 20.9051 13.2577 20.8629 13.2366 20.8629C13.2153 20.8629 13.1979 20.8283 13.1979 20.7861C13.1979 20.7436 13.1805 20.709 13.1592 20.709C13.1381 20.709 13.1207 20.6744 13.1207 20.6322C13.1207 20.59 13.1034 20.5554 13.082 20.5554C13.0607 20.5554 13.0433 20.5339 13.0433 20.5079C13.0433 20.4368 12.8426 20.0555 12.8053 20.0555C12.7874 20.0555 12.773 20.0297 12.773 19.9979C12.773 19.9661 12.7557 19.9402 12.7343 19.9402C12.713 19.9402 12.6956 19.9218 12.6956 19.8989C12.6956 19.8763 12.6741 19.836 12.6474 19.8092C12.6207 19.7824 12.5644 19.7121 12.5218 19.6528C12.4381 19.5359 12.0484 19.1329 12.0192 19.1329C12.0095 19.1329 11.9272 19.0593 11.8366 18.9696C11.6117 18.7463 11.4557 18.6331 11.3736 18.6331C11.3359 18.6331 11.3048 18.6158 11.3048 18.5948C11.3048 18.5736 11.2788 18.5563 11.2468 18.5563C11.2151 18.5563 11.1889 18.539 11.1889 18.5177C11.1889 18.4967 11.1662 18.4795 11.1384 18.4795C11.1105 18.4795 11.0503 18.4449 11.0046 18.4024C10.9592 18.3602 10.8959 18.3256 10.8644 18.3256C10.8331 18.3256 10.7965 18.3083 10.7832 18.2871C10.7703 18.2661 10.7258 18.2488 10.6845 18.2488C10.6432 18.2488 10.6094 18.2315 10.6094 18.2103C10.6094 18.189 10.567 18.1717 10.5153 18.1717C10.4634 18.1717 10.4107 18.1556 10.3984 18.1355C10.3859 18.1157 10.2978 18.0878 10.2023 18.0735C10.1071 18.0592 10.0195 18.0324 10.0079 18.0135C9.99627 17.9948 9.92696 17.9796 9.85371 17.9796C9.78069 17.9796 9.72089 17.9623 9.72089 17.9411C9.72089 17.9201 9.65228 17.9028 9.56859 17.9028C9.48491 17.9028 9.40564 17.8855 9.39242 17.8643C9.37944 17.8431 9.27397 17.8258 9.1583 17.8258C9.04287 17.8258 8.94829 17.8085 8.94829 17.7875C8.94829 17.7644 8.79368 17.7489 8.56187 17.7489C8.33007 17.7489 8.17546 17.7335 8.17546 17.7104C8.17546 17.6894 8.16248 17.6742 8.14648 17.6765C7.92673 17.7111 7.63466 17.6648 7.63466 17.5951C7.63466 17.5529 7.61728 17.5183 7.59595 17.5183C7.57486 17.5183 7.55747 17.4765 7.55747 17.4253C7.55747 17.3744 7.54426 17.3266 7.5285 17.3197C7.48028 17.2985 7.32567 16.9781 7.32567 16.8997C7.32567 16.8593 7.30828 16.8263 7.28696 16.8263C7.26563 16.8263 7.24825 16.8009 7.24825 16.77C7.24825 16.7004 7.14347 16.3696 7.09248 16.279C7.07208 16.2423 7.05516 16.1784 7.05516 16.1371C7.05516 16.0958 7.03777 16.0513 7.01644 16.0381C6.99535 16.0252 6.97796 15.9809 6.97796 15.9399C6.97796 15.8988 6.96058 15.8651 6.93925 15.8651C6.91793 15.8651 6.90054 15.8047 6.90054 15.7307C6.90054 15.6566 6.88524 15.5962 6.86624 15.5962C6.83402 15.5962 6.82266 15.5517 6.7603 15.1829C6.74709 15.1035 6.72321 15.0299 6.70745 15.0195C6.67268 14.996 6.58923 14.3483 6.56489 13.9142C6.55516 13.7398 6.53035 13.5971 6.50972 13.5971C6.44157 13.5971 6.51992 11.7426 6.59155 11.6556C6.60917 11.6346 6.63582 11.4748 6.65089 11.3008C6.66619 11.1269 6.69377 10.9938 6.71232 11.0051C6.73086 11.0167 6.74616 10.9655 6.74616 10.8914C6.74616 10.8174 6.76355 10.7461 6.78464 10.733C6.80597 10.72 6.82335 10.6755 6.82335 10.6342C6.82335 10.5616 6.83726 10.5242 6.93323 10.3395C6.9578 10.2922 6.97796 10.2188 6.97796 10.1761C6.97796 10.1335 6.99535 10.0986 7.01644 10.0986C7.03777 10.0986 7.05516 10.067 7.05516 10.0283C7.05516 9.98954 7.0985 9.87283 7.15159 9.7688C7.20467 9.66477 7.24802 9.54945 7.24825 9.51254C7.24825 9.4754 7.26563 9.44519 7.28696 9.44519C7.30828 9.44519 7.32567 9.40967 7.32567 9.36607C7.32567 9.32248 7.34305 9.29756 7.36415 9.31071C7.38547 9.32363 7.40286 9.29872 7.40286 9.25535C7.40286 9.21176 7.42025 9.17601 7.44157 9.17601C7.46267 9.17601 7.48005 9.14141 7.48005 9.0992C7.48005 9.05699 7.49744 9.02239 7.51876 9.02239C7.54009 9.02239 7.55747 8.9984 7.55747 8.96933C7.55747 8.94027 7.58251 8.89552 7.61334 8.87015C7.64417 8.84478 7.70838 8.74306 7.75566 8.64433C7.80318 8.54561 7.87365 8.43697 7.91213 8.4026C7.95084 8.36847 7.98237 8.32487 7.98237 8.30549C7.98237 8.28612 8.01714 8.24552 8.05956 8.21508C8.10221 8.18463 8.13698 8.14496 8.13698 8.12696C8.13698 8.10897 8.15854 8.0723 8.18519 8.04554C8.21185 8.01878 8.26818 7.95028 8.31083 7.89307C8.35325 7.83587 8.4768 7.69747 8.58552 7.58537C8.69423 7.4735 8.78974 7.36579 8.79808 7.34595C8.8062 7.32634 8.89984 7.24146 9.00601 7.15704C9.11241 7.07285 9.26308 6.93906 9.3412 6.85995C9.41908 6.7806 9.49372 6.71579 9.50694 6.71579C9.52988 6.71579 9.58297 6.67611 9.70026 6.57162C9.7297 6.5451 9.77003 6.52342 9.7895 6.52342C9.80898 6.52342 9.85626 6.48882 9.89474 6.44661C9.93322 6.4044 9.98422 6.3698 10.0081 6.3698C10.032 6.3698 10.0767 6.3352 10.1073 6.29276C10.1379 6.25055 10.1938 6.21595 10.2316 6.21595C10.2696 6.21595 10.3004 6.19865 10.3004 6.17743C10.3004 6.15644 10.3361 6.13914 10.3799 6.13914C10.4237 6.13914 10.4488 6.12184 10.4355 6.10062C10.4226 6.07939 10.4346 6.0621 10.4622 6.06186C10.5134 6.06163 10.586 6.02703 10.8521 5.87595C10.9325 5.83028 11.0236 5.79315 11.0549 5.79315C11.0862 5.79315 11.1117 5.77585 11.1117 5.75463C11.1117 5.7334 11.1456 5.71611 11.1866 5.71611C11.2278 5.71611 11.2723 5.69881 11.2856 5.67782C11.2988 5.6566 11.3433 5.6393 11.3845 5.6393C11.4256 5.6393 11.4594 5.622 11.4594 5.60078C11.4594 5.57979 11.4933 5.56249 11.5343 5.56249C11.5755 5.56249 11.6198 5.54565 11.6326 5.52512C11.6453 5.50459 11.7424 5.47622 11.8481 5.46238C11.9541 5.44831 12.05 5.42201 12.0614 5.40356C12.0728 5.38511 12.1333 5.37012 12.1958 5.37012C12.2582 5.37012 12.3094 5.35282 12.3094 5.33183C12.3094 5.31061 12.379 5.29331 12.4638 5.29331C12.5489 5.29331 12.6184 5.27601 12.6184 5.25479C12.6184 5.2338 12.687 5.2165 12.7707 5.2165C12.8544 5.2165 12.9337 5.1992 12.9469 5.17798C12.9599 5.15675 13.0609 5.13922 13.1713 5.13899C13.2816 5.13853 13.3977 5.12169 13.4297 5.10117C13.5092 5.04996 15.516 5.04996 15.516 5.10117Z" fill="#302F33"/>
</svg>