<svg width="31" height="31" viewBox="0 0 31 31" fill="none" xmlns="http://www.w3.org/2000/svg">
    <path d="M21.9864 18.0741C21.6085 17.8828 19.7678 16.9846 19.4238 16.8564C19.0798 16.7339 18.83 16.6698 18.5793 17.0478C18.3342 17.4163 17.6123 18.2598 17.3918 18.5058C17.1712 18.7518 16.9544 18.7706 16.5822 18.6038C16.2042 18.4125 14.9969 18.0195 13.5634 16.7339C12.4437 15.7377 11.6982 14.5106 11.4767 14.1326C11.2562 13.7594 11.4522 13.5483 11.6388 13.3617C11.8103 13.1901 12.0167 12.93 12.2081 12.7038C12.39 12.4776 12.4484 12.3259 12.5813 12.0808C12.7038 11.816 12.6407 11.6096 12.5474 11.423C12.4541 11.2364 11.7029 9.38625 11.389 8.64923C11.0893 7.91785 10.7755 8.01116 10.5446 8.01116C10.3287 7.99137 10.078 7.99137 9.82828 7.99137C9.57852 7.99137 9.17042 8.08467 8.82641 8.44282C8.48241 8.82076 7.5107 9.72366 7.5107 11.5502C7.5107 13.3815 8.85563 15.1533 9.04224 15.4182C9.23357 15.6632 11.6878 19.4332 15.4531 21.0533C16.3512 21.4313 17.0487 21.6575 17.5935 21.8441C18.4916 22.1287 19.3116 22.0891 19.9591 21.9958C20.6754 21.878 22.1777 21.0873 22.4925 20.2041C22.812 19.3154 22.812 18.5793 22.7187 18.4125C22.6254 18.2409 22.3804 18.1476 22.0024 17.9808L21.9864 18.0741ZM15.1581 27.3322H15.1383C12.9093 27.3322 10.7057 26.7281 8.78117 25.599L8.32972 25.3294L3.61727 26.5565L4.88398 21.9713L4.57956 21.5001C3.33736 19.5218 2.67479 17.2391 2.67479 14.8932C2.67479 8.05075 8.276 2.46932 15.1675 2.46932C18.5058 2.46932 21.6377 3.76996 23.9939 6.12618C26.3501 8.46261 27.6508 11.5945 27.6508 14.913C27.6413 21.7508 22.0448 27.3322 15.1628 27.3322H15.1581ZM25.7856 4.33451C22.9185 1.56548 19.1486 0 15.1383 0C6.86698 0 0.131949 6.70581 0.127236 14.9469C0.127236 17.5784 0.814311 20.1457 2.13003 22.4181L0 30.1597L7.96215 28.0834C10.1563 29.2662 12.6256 29.8995 15.1392 29.9042H15.1439C23.4199 29.9042 30.155 23.1984 30.1597 14.9517C30.1597 10.9612 28.6036 7.20533 25.7667 4.38258L25.7856 4.33451Z" fill="#302F33"/>
</svg>